<svg xmlns="http://www.w3.org/2000/svg" width="925" height="768" viewBox="0 0 925 768" fill="none">
  <path d="M2.0796 51.4728C1.97619 34.9827 2.05327 18.4904 2.04011 1.99997L923 1.99997L923 765.809L480.306 765.809C470.716 716.877 459.865 668.134 449.878 619.256C438.315 562.666 431.444 502.232 393.37 452.916C362.715 413.208 319.97 379.653 278.649 348.039C246.829 323.694 213.048 301.261 181.528 276.645C154.442 255.491 128.084 233.671 102.161 211.508C83.4564 195.516 64.2567 179.555 47.1031 162.328C30.1783 145.33 15.5115 126.464 9.55227 104.672C4.62877 86.6687 2.19626 70.0763 2.0796 51.4728Z" fill="#A9DEF9" stroke="#A9DEF9" stroke-width="3" stroke-linecap="round"/>
</svg>