<svg xmlns="http://www.w3.org/2000/svg" width="40" height="42" viewBox="0 0 40 42" fill="none">
  <path d="M20 0.570312C14.5667 0.570312 13.8883 0.595842 11.755 0.692853C9.625 0.79497 8.175 1.13706 6.9 1.64254C5.585 2.16334 4.46833 2.86284 3.35667 3.99804C2.245 5.13324 1.55833 6.27185 1.05 7.61639C0.555 8.91838 0.218333 10.3991 0.12 12.5742C0.02 14.7527 0 15.4454 0 20.9937C0 26.5421 0.025 27.2348 0.12 29.4133C0.22 31.5867 0.555 33.0691 1.05 34.371C1.55215 35.7341 2.33933 36.9689 3.35667 37.9894C4.35546 39.029 5.56483 39.8329 6.9 40.3449C8.17667 40.8487 9.62667 41.1942 11.755 41.2946C13.8883 41.3967 14.5667 41.4171 20 41.4171C25.4333 41.4171 26.1117 41.3916 28.245 41.2946C30.3733 41.1925 31.825 40.8487 33.1 40.3449C34.4344 39.8315 35.6435 39.0277 36.6433 37.9894C37.6617 36.9697 38.4491 35.7347 38.95 34.371C39.4433 33.0691 39.7817 31.5867 39.88 29.4133C39.98 27.2348 40 26.5421 40 20.9937C40 15.4454 39.975 14.7527 39.88 12.5742C39.78 10.4008 39.4433 8.91668 38.95 7.61639C38.4476 6.2535 37.6605 5.01875 36.6433 3.99804C35.6453 2.95754 34.4357 2.15345 33.1 1.64254C31.825 1.13706 30.3733 0.793268 28.245 0.692853C26.1117 0.590736 25.4333 0.570312 20 0.570312ZM20 4.24653C25.3383 4.24653 25.975 4.27376 28.0833 4.36736C30.0333 4.46097 31.0917 4.79115 31.795 5.07367C32.7317 5.443 33.395 5.8855 34.0983 6.59862C34.7967 7.31344 35.23 7.99252 35.5917 8.94901C35.865 9.66724 36.1917 10.748 36.28 12.7393C36.375 14.8939 36.3967 15.5407 36.3967 20.9937C36.3967 26.4468 36.3717 27.0952 36.2733 29.2482C36.1717 31.2395 35.8467 32.3202 35.5717 33.0384C35.2463 33.9247 34.7349 34.7275 34.0733 35.3905C33.4269 36.0667 32.6412 36.5876 31.7733 36.9155C31.0733 37.1946 29.9983 37.5282 28.0483 37.6184C25.925 37.7154 25.3 37.7375 19.95 37.7375C14.5983 37.7375 13.9733 37.712 11.8517 37.6116C9.9 37.5077 8.825 37.1759 8.125 36.895C7.25651 36.5669 6.47113 36.044 5.82667 35.365C5.15764 34.7093 4.64452 33.9059 4.32667 33.0163C4.05167 32.3015 3.72833 31.2037 3.62667 29.2124C3.55167 27.068 3.525 26.4059 3.525 20.9682C3.525 15.5288 3.55167 14.865 3.62667 12.695C3.72833 10.7037 4.05167 9.60767 4.32667 8.89285C4.67667 7.92274 5.125 7.25898 5.82667 6.54246C6.525 5.82934 7.17667 5.36981 8.125 5.0141C8.825 4.73158 9.87667 4.3997 11.8267 4.29758C13.9517 4.221 14.5767 4.19547 19.925 4.19547L20 4.24653ZM20 10.5063C18.6513 10.5063 17.3159 10.7776 16.0698 11.3046C14.8238 11.8316 13.6917 12.6041 12.738 13.578C11.7844 14.5518 11.0279 15.708 10.5118 16.9804C9.99564 18.2527 9.73 19.6165 9.73 20.9937C9.73 22.3709 9.99564 23.7347 10.5118 25.0071C11.0279 26.2795 11.7844 27.4356 12.738 28.4094C13.6917 29.3833 14.8238 30.1558 16.0698 30.6828C17.3159 31.2099 18.6513 31.4811 20 31.4811C22.7238 31.4811 25.336 30.3762 27.262 28.4094C29.188 26.4427 30.27 23.7752 30.27 20.9937C30.27 18.2123 29.188 15.5448 27.262 13.578C25.336 11.6112 22.7238 10.5063 20 10.5063ZM20 27.8015C16.3167 27.8015 13.3333 24.755 13.3333 20.9937C13.3333 17.2324 16.3167 14.1859 20 14.1859C23.6833 14.1859 26.6667 17.2324 26.6667 20.9937C26.6667 24.755 23.6833 27.8015 20 27.8015ZM33.0767 10.0927C33.0535 10.7269 32.7905 11.3272 32.343 11.7676C31.8954 12.2079 31.2981 12.4539 30.6767 12.4539C30.0552 12.4539 29.4579 12.2079 29.0104 11.7676C28.5628 11.3272 28.2998 10.7269 28.2767 10.0927C28.2767 9.44273 28.5295 8.81936 28.9796 8.35974C29.4297 7.90013 30.0401 7.64192 30.6767 7.64192C31.3132 7.64192 31.9236 7.90013 32.3737 8.35974C32.8238 8.81936 33.0767 9.44273 33.0767 10.0927Z" fill="black"/>
</svg>