<svg xmlns="http://www.w3.org/2000/svg" width="44" height="44" viewBox="0 0 44 44" fill="none">
<path d="M14.6665 0C11.4264 0 8.7998 2.6266 8.7998 5.86667V8.8C8.7998 12.0401 11.4264 14.6667 14.6665 14.6667C17.9065 14.6667 20.5331 12.0401 20.5331 8.8V5.86667C20.5331 2.6266 17.9065 0 14.6665 0Z" fill="black"/>
<path d="M29.3335 0C26.0934 0 23.4668 2.6266 23.4668 5.86667V8.8C23.4668 12.0401 26.0934 14.6667 29.3335 14.6667C32.5736 14.6667 35.2001 12.0401 35.2001 8.8V5.86667C35.2001 2.6266 32.5736 0 29.3335 0Z" fill="black"/>
<path d="M5.86667 14.6665C2.6266 14.6665 0 17.2931 0 20.5332V21.9998C0 25.2399 2.6266 27.8665 5.86667 27.8665C9.10674 27.8665 11.7333 25.2399 11.7333 21.9998V20.5332C11.7333 17.2931 9.10674 14.6665 5.86667 14.6665Z" fill="black"/>
<path d="M38.1333 14.6665C34.8931 14.6665 32.2666 17.2931 32.2666 20.5332V21.9998C32.2666 25.2399 34.8931 27.8665 38.1333 27.8665C41.3734 27.8665 43.9999 25.2399 43.9999 21.9998V20.5332C43.9999 17.2931 41.3734 14.6665 38.1333 14.6665Z" fill="black"/>
<path d="M28.1976 22.8182C24.9862 18.9187 19.0143 18.9187 15.8029 22.8182L7.24389 33.2112C3.70033 37.5141 6.76115 44 12.3354 44C13.1318 44 13.9173 43.8147 14.6297 43.4585L15.6847 42.9308C19.6604 40.9429 24.34 40.9429 28.3157 42.9308L29.3708 43.4585C30.083 43.8147 30.8686 44 31.665 44C37.2392 44 40.3001 37.5141 36.7566 33.2112L28.1976 22.8182Z" fill="black"/>
</svg>