<svg xmlns="http://www.w3.org/2000/svg" width="29" height="28" viewBox="0 0 29 28" fill="none">
  <path d="M15.6492 0.613712L18.79 8.11632C19.0303 8.69063 19.5507 9.08409 20.1481 9.1403L27.7995 9.85879C28.6652 9.99076 29.0105 11.1027 28.3828 11.743L22.6192 16.814C22.1525 17.2245 21.9402 17.8697 22.0685 18.4929L23.7439 26.7067C23.8909 27.6085 22.9879 28.2976 22.2132 27.8699L15.5348 23.7741C15.0215 23.4588 14.3868 23.4588 13.8734 23.7741L7.19504 27.8675C6.42266 28.2927 5.51728 27.606 5.66429 26.7042L7.33971 18.4905C7.46572 17.8673 7.25571 17.2221 6.78902 16.8115L1.02304 11.7454C0.397675 11.1076 0.743027 9.9932 1.60641 9.86123L9.25781 9.14274C9.85518 9.08653 10.3755 8.69307 10.6159 8.11877L13.7567 0.616155C14.1464 -0.204977 15.2618 -0.204977 15.6492 0.613712Z" fill="#F4B400"/>
  <path d="M15.4205 8.56617L14.8885 3.03819C14.8675 2.73026 14.8068 2.20239 15.2781 2.20239C15.6515 2.20239 15.8545 3.01619 15.8545 3.01619L17.4506 7.45422C18.0526 9.14292 17.8053 9.72211 17.2243 10.0643C16.5569 10.4553 15.5722 10.1498 15.4205 8.56617Z" fill="#FFFF8D"/>
  <path d="M22.0031 16.3227L26.5814 12.5812C26.8077 12.3832 27.2161 12.068 26.8894 11.7087C26.6304 11.4252 25.9303 11.8334 25.9303 11.8334L21.9238 13.4732C20.7291 13.9057 19.9357 14.546 19.8657 15.3525C19.7747 16.4278 20.6964 17.2563 22.0031 16.3227Z" fill="#F4B400"/>
</svg>