<svg xmlns="http://www.w3.org/2000/svg" width="41" height="42" viewBox="0 0 41 42" fill="none">
  <path d="M40.6094 5.4355C39.1119 6.26386 37.5256 6.81065 35.9013 7.05828C37.6114 5.76686 38.8918 3.74163 39.5061 1.35658C37.9212 2.5187 36.1646 3.36463 34.2947 3.83576C33.061 2.17829 31.4262 1.07898 29.6443 0.708524C27.8623 0.338071 26.0329 0.717211 24.44 1.78707C22.8471 2.85693 21.58 4.55764 20.8353 6.6251C20.0907 8.69256 19.9102 11.0111 20.3219 13.2206C13.5055 12.8165 7.46413 8.70408 3.42096 2.48729C2.68565 4.05733 2.30212 5.84806 2.31101 7.6697C2.31101 11.2503 3.76095 14.3974 5.95752 16.2463C4.65568 16.1943 3.38258 15.752 2.24435 14.9565V15.0842C2.24361 17.4637 2.8981 19.7702 4.09678 21.6125C5.29546 23.4547 6.9645 24.7192 8.82074 25.1915C7.61795 25.5964 6.3582 25.6572 5.13423 25.3694C5.66129 27.4171 6.68387 29.2071 8.05935 30.4897C9.43484 31.7723 11.0946 32.4836 12.8072 32.5243C9.90651 35.3843 6.32495 36.9366 2.63766 36.932C1.98769 36.932 1.33938 36.8838 0.687744 36.7917C4.4471 39.816 8.81826 41.4213 13.2822 41.4171C28.3716 41.4171 36.6129 25.7212 36.6129 12.1318C36.6129 11.6942 36.6129 11.2524 36.5879 10.8126C38.1978 9.35706 39.5865 7.54994 40.6877 5.47738L40.6094 5.4355Z" fill="black"/>
</svg>